<svg width="800" height="600" xmlns="http://www.w3.org/2000/svg">
  <defs>
    <linearGradient id="bg" x1="0%" y1="0%" x2="100%" y2="100%">
      <stop offset="0%" stop-color="#1e293b"/>
      <stop offset="100%" stop-color="#0f172a"/>
    </linearGradient>
    <linearGradient id="card" x1="0%" y1="0%" x2="100%" y2="100%">
      <stop offset="0%" stop-color="#334155"/>
      <stop offset="100%" stop-color="#1e293b"/>
    </linearGradient>
  </defs>
  <rect width="100%" height="100%" fill="url(#bg)" rx="12"/>
  
  <!-- Header -->
  <rect x="24" y="24" width="752" height="48" fill="#1e293b" rx="8"/>
  <circle cx="48" cy="48" r="8" fill="#3b82f6"/>
  <text x="72" y="52" font-family="Arial, sans-serif" font-size="16" font-weight="bold" fill="#ffffff">Exonium Dashboard</text>
  
  <!-- Sidebar -->
  <rect x="24" y="88" width="200" height="488" fill="url(#card)" rx="8"/>
  <rect x="40" y="104" width="168" height="32" fill="#3b82f6" rx="6"/>
  <text x="48" y="124" font-family="Arial, sans-serif" font-size="12" fill="#ffffff">Projects</text>
  <rect x="40" y="148" width="168" height="32" fill="#475569" rx="6"/>
  <text x="48" y="168" font-family="Arial, sans-serif" font-size="12" fill="#cbd5e1">Tasks</text>
  <rect x="40" y="192" width="168" height="32" fill="#475569" rx="6"/>
  <text x="48" y="212" font-family="Arial, sans-serif" font-size="12" fill="#cbd5e1">Team</text>
  
  <!-- Main Content -->
  <rect x="240" y="88" width="536" height="280" fill="url(#card)" rx="8"/>
  <text x="256" y="112" font-family="Arial, sans-serif" font-size="18" font-weight="bold" fill="#ffffff">Project Overview</text>
  
  <!-- Charts/Cards -->
  <rect x="256" y="128" width="160" height="120" fill="#1e293b" rx="8"/>
  <rect x="256" y="136" width="144" height="4" fill="#3b82f6" rx="2"/>
  <rect x="256" y="148" width="120" height="4" fill="#10b981" rx="2"/>
  <rect x="256" y="160" width="100" height="4" fill="#f59e0b" rx="2"/>
  
  <rect x="432" y="128" width="160" height="120" fill="#1e293b" rx="8"/>
  <circle cx="512" cy="188" r="30" stroke="#3b82f6" stroke-width="4" fill="none"/>
  <circle cx="512" cy="188" r="20" stroke="#10b981" stroke-width="3" fill="none"/>
  
  <rect x="608" y="128" width="160" height="120" fill="#1e293b" rx="8"/>
  <rect x="620" y="140" width="8" height="60" fill="#3b82f6" rx="4"/>
  <rect x="636" y="150" width="8" height="50" fill="#10b981" rx="4"/>
  <rect x="652" y="160" width="8" height="40" fill="#f59e0b" rx="4"/>
  <rect x="668" y="170" width="8" height="30" fill="#ef4444" rx="4"/>
  
  <!-- Bottom Section -->
  <rect x="240" y="384" width="536" height="192" fill="url(#card)" rx="8"/>
  <text x="256" y="408" font-family="Arial, sans-serif" font-size="18" font-weight="bold" fill="#ffffff">Recent Activity</text>
  
  <!-- Activity Items -->
  <rect x="256" y="424" width="504" height="24" fill="#1e293b" rx="4"/>
  <circle cx="268" cy="436" r="4" fill="#10b981"/>
  <text x="284" y="440" font-family="Arial, sans-serif" font-size="12" fill="#cbd5e1">Task completed: API Integration</text>
  
  <rect x="256" y="456" width="504" height="24" fill="#1e293b" rx="4"/>
  <circle cx="268" cy="468" r="4" fill="#3b82f6"/>
  <text x="284" y="472" font-family="Arial, sans-serif" font-size="12" fill="#cbd5e1">New project created: Mobile App</text>
  
  <rect x="256" y="488" width="504" height="24" fill="#1e293b" rx="4"/>
  <circle cx="268" cy="500" r="4" fill="#f59e0b"/>
  <text x="284" y="504" font-family="Arial, sans-serif" font-size="12" fill="#cbd5e1">Team member added to project</text>
</svg>